# xmcd CD database file
#
# Track frame offsets:
#	150
#	2269
#	8334
#	10176
#	20562
#	22249
#	39156
#	40907
#	53776
#	55492
#	67953
#	69930
#	76569
#	78932
#	86123
#	87167
#	97741
#	100169
#	103943
#	106384
#	113502
#	114950
#	122748
#	126162
#	132620
#	142260
#	148687
#	157150
#	160606
#	166778
#	174537
#	189675
#
# Disc length: 2587 seconds
#
# Revision: 2
# Processed by: cddbd v1.5.2PL0 Copyright (c) Steve Scherf et al.
# Submitted via: CDex 1.51
#
DISCID=940a1920
DTITLE=Alessandro Scarlatti - Il Trionfo dell'onestà, Sonate N°3, Concerto grosso N°1
DYEAR=1900
DGENRE=Classique
TTITLE0=Il Trionfo dell'onestà - Introduzione  [Pàl Németh, Savaria Baroque Orchestra]
TTITLE1=Il Trionfo dell'onestà - Duetto - Puote si poco Amor ¿
TTITLE2=Il Trionfo dell'onestà - Recitativo - Et osi ancor, Cupido
TTITLE3=Il Trionfo dell'onestà - Aria - La costanza saprò abbattere
TTITLE4=Il Trionfo dell'onestà - Recitativo - Deh, frena omai l'ardire
TTITLE5=Il Trionfo dell'onestà - Aria - Frangi l'arco, arcier bentado
TTITLE6=Il Trionfo dell'onestà - Recitativo - Parti, ritorna in Gnido
TTITLE7=Il Trionfo dell'onestà - Aria - Miei spirti guerrieri
TTITLE8=Il Trionfo dell'onestà - Recitativo - Misero, quanto t'inganni!
TTITLE9=Il Trionfo dell'onestà - Aria - D'Amore all' assalto
TTITLE10=Il Trionfo dell'onestà - Recitativo - Ma che rimiro omai ¿
TTITLE11=Il Trionfo dell'onestà - Aria - Tu vuoi ingannarmi, Amor
TTITLE12=Il Trionfo dell'onestà - Recitativo - Mia compagna vuoi farti, e non tradirti ¿
TTITLE13=Il Trionfo dell'onestà - Aria - Al moi crine con fasci di rose
TTITLE14=Il Trionfo dell'onestà - Recitativo - Che più si tarda, Amore ¿
TTITLE15=Il Trionfo dell'onestà - Aria - La strale ch'è d'oro
TTITLE16=Il Trionfo dell'onestà - Recitativo - Pastorella gentil
TTITLE17=Il Trionfo dell'onestà - Aria - Che si, che si
TTITLE18=Il Trionfo dell'onestà - Recitativo - Mi dileggi, e del crime
TTITLE19=Il Trionfo dell'onestà - Aria - Miralo e poi dimmi
TTITLE20=Il Trionfo dell'onestà - Recitativo - Che stabili la bella ¿
TTITLE21=Il Trionfo dell'onestà - Aria - Sì, sì, ch'ho vinto
TTITLE22=Il Trionfo dell'onestà - Duetto - Agl'abbraci Amor l'invita
TTITLE23=Sonate N°3 en do mineur pour flûte et orchestre à cordes - I. Moderato [Pàl Nemeth, flûte]
TTITLE24=Sonate N°3 en do mineur pour flûte et orchestre à cordes - II. Fuga-Allegro [Capella Savaria]
TTITLE25=Sonate N°3 en do mineur pour flûte et orchestre à cordes - III. Largo
TTITLE26=Sonate N°3 en do mineur pour flûte et orchestre à cordes - IV. Andante
TTITLE27=Sonate N°3 en do mineur pour flûte et orchestre à cordes - V. Andante
TTITLE28=Concerto grosso N°1 en fa mineur - I. Grave [Charles Avison, Tafelmusic Baroque Orch]
TTITLE29=Concerto grosso N°1 en fa mineur - II. Allegro
TTITLE30=Concerto grosso N°1 en fa mineur - III. Largo
TTITLE31=Concerto grosso N°1 en fa mineur - IV. Allemande
EXTD=
EXTT0=
EXTT1=
EXTT2=
EXTT3=
EXTT4=
EXTT5=
EXTT6=
EXTT7=
EXTT8=
EXTT9=
EXTT10=
EXTT11=
EXTT12=
EXTT13=
EXTT14=
EXTT15=
EXTT16=
EXTT17=
EXTT18=
EXTT19=
EXTT20=
EXTT21=
EXTT22=
EXTT23=
EXTT24=
EXTT25=
EXTT26=
EXTT27=
EXTT28=
EXTT29=
EXTT30=
EXTT31=
PLAYORDER=
